<?xml version="1.0" encoding="UTF-8"?>
<!DOCTYPE svg PUBLIC "-//W3C//DTD SVG 1.1//EN" "http://www.w3.org/Graphics/SVG/1.1/DTD/svg11.dtd">
<!-- Creator: CorelDRAW -->
<svg xmlns="http://www.w3.org/2000/svg" xml:space="preserve" width="89.6739mm" height="63.0659mm" version="1.1" style="shape-rendering:geometricPrecision; text-rendering:geometricPrecision; image-rendering:optimizeQuality; fill-rule:evenodd; clip-rule:evenodd"
viewBox="0 0 10128.25 7123"
 xmlns:xlink="http://www.w3.org/1999/xlink"
 xmlns:xodm="http://www.corel.com/coreldraw/odm/2003">
 <defs>
  <style type="text/css">
   <![CDATA[
    .fil0 {fill:#E80881}
   ]]>
  </style>
 </defs>
 <g id="Layer_x0020_1">
  <metadata id="CorelCorpID_0Corel-Layer"/>
  <g id="_2010830965712">
   <path class="fil0" d="M2344.9 4565.11c118.21,115.53 140.97,148.34 260.6,240.14 1164.59,893.58 613.2,946.35 1651.17,186.52 193.94,-141.98 340.98,-290.6 541.91,-440.5l3477.02 -2845.17c123.64,-110.62 162.58,-137.35 267.82,-224.39 304.77,-252.09 1477.6,-1150.25 1584.83,-1353.3l-4583 19.65 -3004.93 2795.75c-170.41,140.81 -897.08,778.98 -981.54,941.77l786.12 679.52z"/>
   <path class="fil0" d="M3115.69 1644.04c-290.51,-256.8 -563.5,-557.7 -851.57,-844.31 -246.1,-244.85 -566.95,-648.43 -812.4,-799.73l12.45 3300.87 1651.53 -1656.83z"/>
   <path class="fil0" d="M4540.99 5387.1c-225.41,226.44 -423.85,304.09 -586.62,599.93 472.8,332.7 826.55,896.32 1207.39,1135.97l-2.82 -2247.13 -617.95 511.22z"/>
   <path class="fil0" d="M-0 1048.27c630.56,-132.64 952.05,147.85 1016.64,-247.12l8.17 -795.9c-224.93,125.22 -389.82,359.37 -539.34,498.59 -116.99,108.94 -146.92,165.74 -237.19,251.8 -224.4,214 -153.74,71.23 -248.29,292.64z"/>
  </g>
 </g>
</svg>
