<?xml version="1.0" encoding="UTF-8"?>
<!DOCTYPE svg PUBLIC "-//W3C//DTD SVG 1.1//EN" "http://www.w3.org/Graphics/SVG/1.1/DTD/svg11.dtd">
<!-- Creator: CorelDRAW -->
<svg xmlns="http://www.w3.org/2000/svg" xml:space="preserve" width="114.5mm" height="114.5mm" version="1.1" style="shape-rendering:geometricPrecision; text-rendering:geometricPrecision; image-rendering:optimizeQuality; fill-rule:evenodd; clip-rule:evenodd"
viewBox="0 0 12435.97 12435.97"
 xmlns:xlink="http://www.w3.org/1999/xlink"
 xmlns:xodm="http://www.corel.com/coreldraw/odm/2003">
 <defs>
  <style type="text/css">
   <![CDATA[
    .str0 {stroke:#373435;stroke-width:21.72;stroke-miterlimit:22.9256}
    .fil1 {fill:#FEFEFE}
    .fil0 {fill:#201E1E}
   ]]>
  </style>
 </defs>
 <g id="Layer_x0020_1">
  <metadata id="CorelCorpID_0Corel-Layer"/>
  <rect class="fil0 str0" x="10.86" y="10.86" width="12414.25" height="12414.25" rx="1293.96" ry="1380.64"/>
  <g id="_2046500744080">
   <path class="fil1" d="M3610.19 7731.71c113.67,111.1 135.56,142.65 250.6,230.93 1119.9,859.29 589.67,910.03 1587.81,179.36 186.5,-136.54 327.9,-279.45 521.12,-423.59l3343.59 -2735.99c118.9,-106.37 156.35,-132.08 257.54,-215.78 293.08,-242.42 1420.89,-1106.11 1524.01,-1301.37l-4407.12 18.9 -2889.62 2688.46c-163.87,135.41 -862.65,749.09 -943.87,905.63l755.96 653.45z"/>
   <path class="fil1" d="M4351.4 4922.74c-279.36,-246.95 -541.87,-536.3 -818.9,-811.91 -236.65,-235.46 -545.2,-623.55 -781.23,-769.04l11.97 3174.2 1588.16 -1593.25z"/>
   <path class="fil1" d="M5722 8522.16c-216.76,217.75 -407.58,292.42 -564.1,576.91 454.66,319.94 794.83,861.93 1161.05,1092.38l-2.72 -2160.89 -594.23 491.61z"/>
   <path class="fil1" d="M1355.27 4349.83c606.36,-127.55 915.52,142.17 977.63,-237.64l7.85 -765.36c-216.3,120.42 -374.86,345.58 -518.64,479.45 -112.5,104.76 -141.28,159.38 -228.08,242.14 -215.79,205.79 -147.84,68.5 -238.76,281.41z"/>
  </g>
 </g>
</svg>
