<?xml version="1.0" encoding="UTF-8"?>
<!DOCTYPE svg PUBLIC "-//W3C//DTD SVG 1.1//EN" "http://www.w3.org/Graphics/SVG/1.1/DTD/svg11.dtd">
<!-- Creator: CorelDRAW -->
<svg xmlns="http://www.w3.org/2000/svg" xml:space="preserve" width="520px" height="520px" version="1.1" style="shape-rendering:geometricPrecision; text-rendering:geometricPrecision; image-rendering:optimizeQuality; fill-rule:evenodd; clip-rule:evenodd"
viewBox="0 0 624.8 624.8"
 xmlns:xlink="http://www.w3.org/1999/xlink"
 xmlns:xodm="http://www.corel.com/coreldraw/odm/2003">
 <defs>
  <style type="text/css">
   <![CDATA[
    .fil0 {fill:#FEFEFE}
    .fil1 {fill:#E80881}
   ]]>
  </style>
 </defs>
 <g id="Layer_x0020_1">
  <metadata id="CorelCorpID_0Corel-Layer"/>
  <rect class="fil0" width="624.8" height="624.8" rx="65.12" ry="69.49"/>
  <path class="fil1" d="M440.56 137.26c39.35,72.79 42.18,190.47 -15.71,249.69 -23.91,-74.86 -48.12,-192.16 -84.22,-251.16l-95.43 -0.84c45.77,98.11 37.15,163.01 -11.43,252.21 -12.11,-15.09 -79.4,-190.56 -57.39,-252.39l-136.88 0.02c45.81,105.19 36.11,75.56 73.75,194.39 19.92,62.89 47.1,140.2 61.14,203.45l80.03 0.46 70.63 -134.08c1.03,1.43 2.23,3.43 2.81,4.47l42.1 129.84 80.43 -1.49c38.45,-76.84 180.67,-289.82 85.72,-391.33 -22.27,-8.22 -65.13,-8 -95.55,-3.24z"/>
 </g>
</svg>
