<?xml version="1.0" encoding="UTF-8"?>
<!DOCTYPE svg PUBLIC "-//W3C//DTD SVG 1.1//EN" "http://www.w3.org/Graphics/SVG/1.1/DTD/svg11.dtd">
<!-- Creator: CorelDRAW -->
<svg xmlns="http://www.w3.org/2000/svg" xml:space="preserve" width="91.7403mm" height="164.809mm" version="1.1" style="shape-rendering:geometricPrecision; text-rendering:geometricPrecision; image-rendering:optimizeQuality; fill-rule:evenodd; clip-rule:evenodd"
viewBox="0 0 8235.59 14795.02"
 xmlns:xlink="http://www.w3.org/1999/xlink"
 xmlns:xodm="http://www.corel.com/coreldraw/odm/2003">
 <defs>
  <style type="text/css">
   <![CDATA[
    .str2 {stroke:#373435;stroke-width:17.95;stroke-miterlimit:22.9256}
    .str0 {stroke:#282829;stroke-width:17.95;stroke-miterlimit:22.9256}
    .str1 {stroke:#201E1E;stroke-width:17.95;stroke-miterlimit:22.9256}
    .str3 {stroke:#373435;stroke-width:44.89;stroke-linejoin:round;stroke-miterlimit:22.9256}
    .fil3 {fill:none}
    .fil7 {fill:#FEFEFE}
    .fil6 {fill:#FEFEFE}
    .fil8 {fill:#373435}
    .fil2 {fill:#373435}
    .fil1 {fill:#282829}
    .fil11 {fill:#201E1E}
    .fil5 {fill:#412116}
    .fil4 {fill:#945743}
    .fil0 {fill:#9F6C5B}
    .fil9 {fill:#C29487}
    .fil10 {fill:#C29487}
   ]]>
  </style>
    <clipPath id="id0">
     <path d="M2030.52 4827.65c-26.64,-114.4 33.3,-209.47 113.47,-283.42 32.34,-29.82 67.97,-56.22 102.55,-79.07 21.27,-14.06 41.51,-27.5 60.82,-40.34 401.19,-267.11 395,-281.38 699.33,-331.67 13.6,-2.24 27.86,-4.58 42.78,-6.98 98.63,-16 227.25,-36.29 404.41,-68.32 219.02,-39.61 443.73,-12.92 541.8,55.07 72.14,50.01 75.78,122.34 -41.7,207.07 -0.76,0.55 -1.53,1.1 -2.29,1.64 -42.17,30.2 -89.12,58.14 -139.66,83.69 -227.15,114.9 -526.67,182.13 -788.86,193.99 -19.65,0.88 -39.11,1.47 -58.29,1.73 -47.29,0.64 -93.01,-0.61 -136.5,-3.82 -232.35,-17.19 -644.1,140.98 -797.52,271.92 -0.12,-0.49 -0.23,-1 -0.35,-1.49z"/>
    </clipPath>
    <clipPath id="id1">
     <path d="M6142.84 4067.44c-34.17,-19.39 -67.88,-40.75 -94.41,-66.04 -28.3,-26.97 -48.48,-58.42 -52.4,-96.73 -0.61,-6.01 11.32,-12.44 31.74,-18.98 96.52,-30.93 382.76,-64.13 430.49,-64.13 62.08,0 124.81,-32.06 158.36,-33.22 118.08,-4.09 189.59,-1.05 242.64,6.77 104.24,15.35 137.3,49.12 312.56,83.4 214.63,41.98 188.49,83.94 355.41,197.85 1.01,0.69 2.01,1.37 3.03,2.06 42,28.48 75.25,54.93 101.46,79.12 101.86,94 97.67,153.88 89.57,166.34 -2.72,4.19 -5.87,3.03 -5.6,-3.99 5.44,-138.62 -507.11,-138.9 -534.1,-149.18 -100.13,-38.13 -219.99,-36.99 -340.18,-24.21 -232.29,24.69 -465.78,92.81 -560.3,4.85 -30.23,-28.14 -84.84,-53.63 -138.27,-83.93z"/>
    </clipPath>
   <clipPath id="id2">
    <path d="M2662.47 5503.64c433.64,-387.38 961.65,-449.81 1388.65,-128.13 -287.29,92.41 -541.43,121.86 -732.63,138.08 -218.67,-3.31 -424.1,66.26 -656.03,-9.95z"/>
   </clipPath>
   <clipPath id="id3">
    <path d="M6047.08 5272.27c88.12,32.43 205.31,-15.84 324.25,2.07 37.78,5.68 150.06,-20.49 222.99,-19.61 148.21,1.78 46.99,28.19 384.34,-13.32 83.8,-10.31 195.6,-19.26 279.62,-27.63 -63.47,-149.11 -287.41,-216.94 -531.38,-259.07 -46.42,-8.02 -352.57,29.13 -392.51,63.71 -48.42,41.92 -303.72,247.82 -287.31,253.85z"/>
   </clipPath>
 </defs>
 <g id="Layer_x0020_1">
  <metadata id="CorelCorpID_0Corel-Layer"/>
  <path class="fil0" d="M7749.1 3742.99c239.2,2166.24 187.23,1880.36 441.75,2751.57 141.86,644.66 -99.92,723.81 -89.42,1080.91 43.29,1471.87 -422.05,2235.22 -748.2,2557.62 -52.93,659.68 -38.64,1335.98 10.64,2016.11 -228.57,415.34 248.36,634.46 8.41,1062.11 -198.15,353.16 -1105.08,938.75 -1360.58,1098.07 -460.89,287.41 -1093.16,-61.15 -1645.43,3.73 -439.97,51.68 -1031.62,395.02 -1476.72,188.12 -437.56,-203.39 -771.39,-1024.13 -1203.98,-1441.42 -306.67,-295.82 32.28,-664.64 -295.18,-1073.42 153.35,-974.79 209.61,-1727.4 100.02,-2493.48 -55.95,-391.11 -149.89,-657.49 -259.58,-991.5 -315.9,476.44 -1030.16,-117.93 -1075.3,-760.3 -317.24,-672.88 -123.39,-1559.97 348.64,-1466.56l114.93 -2980.98 2595.17 -2034.83c153.1,-328.16 1401.2,-299.18 3454.76,210.5 619.47,524.41 1073.95,1197.3 1080.07,2273.74z"/>
  <path class="fil1 str0" d="M1346.88 3143.02l134.03 1058.8c-432.87,374.65 -625.95,1175.57 -415.49,2693.94 -267.5,-689.56 -374.17,-414.13 -561.26,-621.2l-376.92 -1804.68c36.06,-525.24 -35.44,-1098.55 106.97,-1532.4 203.41,-619.64 676.06,-1052.36 1095.88,-1486.06 403.11,-416.41 986.27,-894.73 1588.28,-1140.23 480.65,-196.01 919.63,-214.82 1526.75,-302.2 653.98,29.92 1330.98,403.99 1949.24,791.4 824.14,600.44 1203.56,1575.35 1348.55,2747.68l30.42 414.94 -235.12 -767.25c-842.33,-2612.34 -4628.26,-2234.91 -6191.33,-52.75z"/>
  <path class="fil2" d="M127.24 4469.88l1219.64 -1326.87 134.03 1058.8c-492.12,420.24 -582.09,1383.75 -415.49,2693.94 -209.96,-209.33 -48.44,-454.03 -629.87,-628l-308.32 -1797.87z"/>
  <path class="fil3 str1" d="M155.25 7509.06c-137.25,-1019.18 65.75,-1223.56 705.01,-383.15"/>
  <path class="fil4" d="M1782.74 10202.17c245.44,13.2 593.75,-34.08 820.15,49.83 388.14,143.88 965.62,3.93 1283.48,-251.22 181.68,-145.82 630.64,-385.04 868.22,-385.04 418.82,0 815.02,-330.91 812.58,-328.32 -4.49,4.76 -130.39,232.37 -141.27,258.67 -5.07,0 402.46,-59.11 525.22,-166.67 30.24,-26.49 206.3,87.01 251.01,96.36 19,45.59 432.44,-30.5 461.27,51.25 57.17,162.21 142.04,617.85 337.3,536.61 -26.9,25.1 -89.48,242.49 -254.29,350.66 -14.69,9.63 -375.77,339.1 -375.62,381.32 0.43,131.54 111.53,258.9 263.92,253.63 19.04,-0.66 480.22,50.89 111.7,38.33 -58.63,-1.99 -244.03,77.57 -444.62,68.99 -3.73,-0.15 -556.13,303.74 -877.19,298.97 -234.62,-3.47 -338.37,90.96 -364.67,91.99 -12.24,0.48 -11.8,-50.42 -122.66,-61.32 -152.29,-14.99 -799.99,-246.95 -820.91,-53.66 -34.86,322.22 -72.08,33.92 246.63,425.34 105.05,129.02 198.54,74.98 -297.22,35.26 -676.59,-54.2 -1152.96,-495.65 -1624.5,-938.52 -376.08,-353.21 -134.72,-181.89 -363.36,-532.66 -40.92,-62.76 -272.61,-218.59 -295.14,-219.8z"/>
  <path class="fil3 str0" d="M369.82 7673.2c20.56,367.96 235,224.79 352.5,337.18 61.82,202.05 194.14,86.85 291.21,130.28"/>
  <path class="fil3 str0" d="M1065.25 7205.23c-85.2,132.19 -150.24,7.41 -255.59,396.56 -35.25,149.81 123.38,246.76 185.07,370.13"/>
  <path class="fil3 str0" d="M1564.34 9388.66c253.76,609.76 888.08,1136.79 1763.46,1611.44"/>
  <path class="fil3 str0" d="M7097.97 10229.85c-882.87,1197.38 -1995.44,1437.68 -3364.77,608.09"/>
  <path class="fil5 str0" d="M3986.57 8192.76c236.73,-31.39 301.05,-124.93 535.65,-169.36 415.28,-78.64 414.07,-203.82 1298.75,-73.88 246.99,-41.69 526.53,-216.35 929.14,28.37 177.8,108.08 156.23,5.75 364.21,12.11 -101.05,-296.25 -264.98,-416.27 -500.33,-572.08 -230.05,-152.27 -402.26,-338.57 -823.41,-153.24 -169.34,61.76 -264.97,-66.76 -412.54,-8.08 -465.16,185.01 -1005.41,468.73 -1391.46,936.17z"/>
  <path class="fil3 str0" d="M4072.89 8275.6c155.81,-130.28 380.52,113.96 683.77,92.72 380.52,86.92 766.83,-52.16 1245.86,-34.77 361.21,-86.92 554.36,86.92 1083.61,-260.77"/>
  <g>
   <g style="clip-path:url(#id0)">
    <image x="1986.42" y="3961.69" width="2097.94" height="905.14" xlink:href="admin_fc_Images\admin_fc_ImgID1.png"/>
   </g>
   <path class="fil3 str0" d="M2030.52 4827.65c-26.64,-114.4 33.3,-209.47 113.47,-283.42 32.34,-29.82 67.97,-56.22 102.55,-79.07 21.27,-14.06 41.51,-27.5 60.82,-40.34 401.19,-267.11 395,-281.38 699.33,-331.67 13.6,-2.24 27.86,-4.58 42.78,-6.98 98.63,-16 227.25,-36.29 404.41,-68.32 219.02,-39.61 443.73,-12.92 541.8,55.07 72.14,50.01 75.78,122.34 -41.7,207.07 -0.76,0.55 -1.53,1.1 -2.29,1.64 -42.17,30.2 -89.12,58.14 -139.66,83.69 -227.15,114.9 -526.67,182.13 -788.86,193.99 -19.65,0.88 -39.11,1.47 -58.29,1.73 -47.29,0.64 -93.01,-0.61 -136.5,-3.82 -232.35,-17.19 -644.1,140.98 -797.52,271.92 -0.12,-0.49 -0.23,-1 -0.35,-1.49z"/>
  </g>
  <g>
   <g style="clip-path:url(#id1)">
    <image x="5958.32" y="3748.84" width="1804.43" height="615.17" xlink:href="admin_fc_Images\admin_fc_ImgID2.png"/>
   </g>
   <path class="fil3 str0" d="M6142.84 4067.44c-34.17,-19.39 -67.88,-40.75 -94.41,-66.04 -28.3,-26.97 -48.48,-58.42 -52.4,-96.73 -0.61,-6.01 11.32,-12.44 31.74,-18.98 96.52,-30.93 382.76,-64.13 430.49,-64.13 62.08,0 124.81,-32.06 158.36,-33.22 118.08,-4.09 189.59,-1.05 242.64,6.77 104.24,15.35 137.3,49.12 312.56,83.4 214.63,41.98 188.49,83.94 355.41,197.85 1.01,0.69 2.01,1.37 3.03,2.06 42,28.48 75.25,54.93 101.46,79.12 101.86,94 97.67,153.88 89.57,166.34 -2.72,4.19 -5.87,3.03 -5.6,-3.99 5.44,-138.62 -507.11,-138.9 -534.1,-149.18 -100.13,-38.13 -219.99,-36.99 -340.18,-24.21 -232.29,24.69 -465.78,92.81 -560.3,4.85 -30.23,-28.14 -84.84,-53.63 -138.27,-83.93z"/>
  </g>
  <path class="fil6" d="M2662.47 5503.64c433.64,-387.38 961.65,-449.81 1388.65,-128.13 -287.29,92.41 -541.43,121.86 -732.63,138.08 -218.67,-3.31 -424.1,66.26 -656.03,-9.95z"/>
  <g style="clip-path:url(#id2)">
   <g id="_2282717923264">
    <path id="_1" class="fil1" d="M3511.86 5493.42c133.26,-122.47 58.25,-153.26 -36.79,-328.6 -19.95,-36.8 -175.07,4.17 -239.41,4.17 -93.14,0 -184.82,45.7 -191.32,137.73 -5.21,73.79 -30.78,152.47 32.28,197.76 102.63,73.74 33.45,109.33 162.63,48.84 58.86,-27.57 172.66,31.95 272.61,-59.91z"/>
   </g>
  </g>
  <path class="fil3 str1" d="M2662.47 5503.64c433.64,-387.38 961.65,-449.81 1388.65,-128.13 -287.29,92.41 -541.43,121.86 -732.63,138.08 -218.67,-3.31 -424.1,66.26 -656.03,-9.95z"/>
  <path class="fil7" d="M6047.08 5272.27c88.12,32.43 205.31,-15.84 324.25,2.07 37.78,5.68 150.06,-20.49 222.99,-19.61 148.21,1.78 46.99,28.19 384.34,-13.32 83.8,-10.31 195.6,-19.26 279.62,-27.63 -63.47,-149.11 -287.41,-216.94 -531.38,-259.07 -46.42,-8.02 -352.57,29.13 -392.51,63.71 -48.42,41.92 -303.72,247.82 -287.31,253.85z"/>
  <g style="clip-path:url(#id3)">
   <g id="_2282717922496">
    <path id="_1_0" class="fil1" d="M6427.93 4906.09c-89.05,198.14 -136.28,333.64 170.76,396.27 118.87,24.25 452.96,-36.63 362.77,-294.14 -40.96,-116.96 -96.82,-131.95 -223.05,-157.66 -67.04,-13.65 -274.16,-25.28 -310.48,55.53z"/>
   </g>
  </g>
  <path class="fil3 str2" d="M6047.08 5272.27c88.12,32.43 205.31,-15.84 324.25,2.07 37.78,5.68 150.06,-20.49 222.99,-19.61 148.21,1.78 46.99,28.19 384.34,-13.32 83.8,-10.31 195.6,-19.26 279.62,-27.63 -63.47,-149.11 -287.41,-216.94 -531.38,-259.07 -46.42,-8.02 -352.57,29.13 -392.51,63.71 -48.42,41.92 -303.72,247.82 -287.31,253.85z"/>
  <path class="fil3 str2" d="M2896.37 5685.41c222.95,-35.95 338.74,45.77 554.76,-56.46 29.58,-14 225.16,-89.04 233.25,-88.41"/>
  <path class="fil3 str2" d="M6349.72 5384.12c169.31,0 261.88,-13.92 451.94,-5.8 108.31,4.62 379.61,-98.51 572.14,-98.51 38.36,0 41.03,-8.18 76.82,-17.38"/>
  <path class="fil3 str1" d="M2357.51 5424.67c333.45,-240.14 698.08,-582.18 1065.78,-545.89 258.11,25.48 460.49,28.5 737.08,244.13"/>
  <path class="fil3 str2" d="M5961.49 5048.05c193.87,-212.75 549.14,-394.28 816.44,-412.17 421.83,-28.24 780.41,394.78 782.76,394.78"/>
  <path class="fil8 str2" d="M5350.39 6690.25c9.42,-57.64 19.97,-84.58 -14.07,-128 -44.24,-56.42 -213.14,-51.26 -302.38,-76.32 -129.81,-36.46 -206.23,24.62 -132.79,71.29 0.52,0.33 -5.32,118.76 41.99,136.66 83.38,31.54 228.81,6.21 326.58,19.69 81.73,11.26 101.67,-61.87 80.68,-23.3z"/>
  <path class="fil1" d="M5367.59 6631.28c-149.76,-88.02 -233.92,-246.36 -544.04,-229.7 -70.83,3.81 -102.93,2.24 -190.9,106.52 -26.16,30.99 386.2,271.87 507.56,199.98 23.74,-14.07 -69.49,-3.71 -130.45,-69.53 -34.02,-36.74 -188.88,-77.75 -91.72,-139.56 33.26,-21.15 145.51,28.34 214.89,21.19 85.11,49.16 301.9,150.61 234.65,111.09z"/>
  <path class="fil8" d="M6089.43 6634.07c108.06,-85.64 205.07,-10.02 224.04,-123.7 24.56,-147.24 -2.29,-108.25 -144.81,-108.25 -59.81,0 -257.05,65.05 -253.55,146.94 0.75,17.63 -115.46,109.23 -82.81,175.02 8.05,16.25 116.04,-8.06 144.55,-39.84 38.13,-42.49 102.35,-42.07 112.58,-50.17z"/>
  <path class="fil1" d="M6352.78 6377.94c-83.15,-12.94 -313.16,-43.27 -369.87,18.72 -33.04,36.11 -204.94,194.24 -200.94,194.3 188.29,2.97 157.57,108.25 322.21,-4.14 181.17,-123.68 55.29,-52.31 46.7,-52.68 -57.34,-2.46 -229.21,85.28 -189.84,-35.27 4.59,-14.06 205.06,-71.42 270.17,-108.52 74.93,-42.69 119.73,-4.87 121.59,-12.41z"/>
  <path class="fil1" d="M4283.02 6430.44c-62.85,188.04 -26.26,126.14 -6.98,332.41 137.09,42.61 70.27,157.51 362.31,130.2 29.27,-2.74 86.59,-33.96 151.43,-33.96 -120.92,0 -233.64,39.35 -316.25,-30.81 -176.14,-149.59 -72.88,7.1 -152.4,-247.67 -10.65,-34.07 -42.44,-137.17 -38.1,-150.18z"/>
  <path class="fil8" d="M6161.48 5864.61c-20.81,-21.81 -86.72,-194.73 -35.6,-50.51 11.81,33.33 293.53,135.89 343.9,188.01 93.76,96.99 76.72,58.7 136.19,186.71 66,142.06 33.43,277.05 39.41,125.41 0.03,-0.69 -103.23,-137.17 -106.69,-137.17 -24.76,0 -199.83,-132.16 -274.33,-153.39 -50.59,-14.42 -265.98,-135.46 -286.11,-173.97 3.53,-7.62 -8.56,-22.61 -11.1,-26.99 18.17,9.88 194.33,102.57 194.33,49.53l0 -7.61z"/>
  <path class="fil9" d="M4427.8 6432.34c55.08,-50.77 325.7,-118.6 432.2,-179.74 196.13,-112.61 378.07,-164.09 608,-159.38 68.18,1.39 216.63,-29.96 207.07,-114.96 -38.38,-340.95 8.91,-117.33 -115.94,-280.65 -8.64,-11.31 -34.8,-295.2 -102.88,-336.94 -69.08,-42.35 93.51,-117.36 -223.5,-274.34 -5.29,-2.62 -55.72,-85.76 -114.31,13.38 -2.75,4.66 26.28,116.66 -31.46,175.94 -47.36,48.61 -3.55,276.41 6.64,336.16 20.15,118.32 -31.88,168.91 -91.77,274.99 -19.47,34.46 -155.95,128.96 -215.88,126.39 -59.25,-2.53 -269.97,86.98 -304.49,144.14 -34.3,56.82 -201.95,144.38 -129.87,282.61 26.55,50.94 32.23,56.38 83.5,-5.12l-7.3 -2.5z"/>
  <path class="fil1" d="M5168.89 6746.69c120.44,-39.74 250.94,-41.28 363.23,28.24 2.09,1.3 66.48,-47.47 114.96,-45.4 106.2,4.54 25.68,-32.06 211.42,14.59 31.94,8.03 194.15,-24.7 200.75,-59.98 4.18,0 60.21,44.92 13.4,45.72 -54.27,0.91 -198.98,39.77 -254.11,63.47 -145.66,62.62 -183.33,55.05 -358.16,61.95 -1.26,0.04 -292.37,-108.3 -291.49,-108.6z"/>
  <path class="fil10" d="M1748.93 7882.16c81.43,-677.4 -133.58,-990.21 666.25,-1140.2 16.81,-3.16 395.53,-174.02 300.27,-154.63 -52.66,10.72 -828.35,-180.59 -244.64,-485.56 47.29,-24.7 -413.55,132.48 -507.9,78.63 -191.39,-109.23 -85.2,-21.44 -182,-54.98 -5.67,-16.4 2.06,-125.43 37,-128.34 39.41,-3.29 89.98,-391.7 51.7,-484.69 -165.47,-401.9 -60.93,-274.6 -5.04,-647.19 -81.38,45.24 5.84,162.5 -406.94,187.7 -171.72,10.49 -342.24,400.49 -279.24,586.52 47.67,140.72 39.13,400.65 -40.74,519.96 -114.99,171.76 75.9,654.21 -38.33,804.88 -1.3,1.72 13.37,472.71 13.37,540.97 0,194.3 -16.08,388.9 65.69,559.59 64.31,134.24 42.5,667.45 123.96,151.34 85.78,-543.32 163.05,-243.3 416.58,-295.02 22.97,-4.69 28.52,-26.69 30,-38.99z"/>
  <path class="fil1" d="M4666.73 10168.56c541.86,-228.24 290.18,-319.27 316.77,-413.89 796.5,421.73 109.8,-337.3 444.03,-3 111.06,111.07 19.43,-84.76 194.2,-105.92 57.6,-6.98 448.62,-29.09 166.21,29.31 -26.55,94.45 492.2,-130.02 497.34,-128.25 55.1,159.24 -114.85,140.15 60.28,127.25 68.76,-5.07 -66.91,-120.22 278.81,99.93 300.6,191.42 -60.92,72.92 81.61,37.97 120.43,-29.54 -157.7,263.86 211.85,188.53 97.03,-19.78 -11.2,-51.98 -1,186.54 0.29,6.9 -230.67,298.96 -271.14,270.16 -64.55,-45.95 -400.12,193.82 -418.71,103.91 -282.67,-58.45 -238.57,167.93 -444.03,35.99 -88.61,-56.91 -38.15,94.34 -144.57,-30.32 -75.33,-88.24 -314.08,105.37 -403.39,-74.6 -30.57,-61.61 -94.38,55.04 -163.21,-69.96 -115.01,-208.82 -52.45,-4.88 -206.86,-122.59 -36.77,-28.03 -209.48,-126.32 -198.2,-131.07z"/>
  <path class="fil10" d="M7308.06 5388.94c73.04,-30.92 466.13,3.82 133,107.3 -10.57,91.69 204.6,50.51 292.45,198.99 47.52,80.32 77.52,132.16 -91.18,88.92 -216.06,-55.38 61.67,18.11 -41.06,162.48 -81.13,114.01 164.02,178.8 129.22,349.63 -35.24,172.93 351.31,-11.68 298.24,194.71 259.58,250.81 36.51,358.72 46.35,608.32 4.92,124.92 -121.8,538.62 85.9,35.27 84.79,-205.46 -17.37,-921.87 -146.14,-1165.63 -70.06,-132.62 -166.26,-1320.3 -213.06,-1362.38 -30.57,-27.49 -404.87,-231.79 -172.05,-73.56 300.04,203.91 74.32,1037.37 200,1054.17 -39.05,4.34 -168.47,-394.54 -453.41,-191.69 -13.84,9.86 -59.04,-10.45 -68.26,-6.54z"/>
  <path class="fil11" d="M958.76 7101.74c-35.74,228.59 -24.09,90.28 -182.72,238.22 -49.85,46.5 36.25,418.82 33.62,261.83 -0.38,-22.91 7.9,-91.24 65.05,-217.75 40.05,-88.62 232.52,-167.37 91.17,-273.94l-7.12 -8.36z"/>
  <path class="fil3 str1" d="M3961.98 8192.76c581.21,-55.86 950.05,-389.05 1858.99,-243.24 1052.48,-290.96 653.93,145.71 1336.44,-3.3"/>
  <path class="fil3 str1" d="M4058.98 8150.83c281.54,-217.43 448.73,-473.86 799.61,-632.88 270.64,-122.63 358.18,-311.97 810.65,-237.24 213.83,95.15 231.91,-239.79 856.58,113.32 549.7,310.72 407.89,384.2 622.8,596.02"/>
  <path class="fil3 str3" d="M1304.21 12119.89c152.77,-9.43 -8.81,146.91 47.01,420.93 78.5,385.4 10.94,294.21 128.34,610.84 116.19,313.4 361.68,-78.71 620.55,659.79 27.45,78.3 905.83,879.75 1021.95,922.97 393.45,146.43 616.1,-175.79 947.79,-175.79 -3.94,0 644.96,-124.09 975.56,-124.09 0,-74.86 954.86,122.24 1209.84,-104.3 101.7,-90.35 265.67,-90.44 457.66,-296.33 11.85,-12.71 460.57,-206.2 552.18,-386.14 125.1,-245.73 384.53,-263.41 386.14,-711.72 1.71,-476.69 -204.12,-45.26 -99.45,-824.45"/>
 </g>
</svg>
